<mxfile host="app.diagrams.net" agent="Mozilla/5.0 (Windows NT 10.0; Win64; x64) AppleWebKit/537.36 (KHTML, like Gecko) Chrome/131.0.0.0 Safari/537.36 Edg/131.0.0.0" version="25.0.3">
  <diagram id="FGkSTieOKaH89joVe_Nt" name="Page-1">
    <mxGraphModel dx="2528" dy="2028" grid="1" gridSize="10" guides="1" tooltips="1" connect="1" arrows="1" fold="1" page="1" pageScale="1" pageWidth="850" pageHeight="1100" background="#ffffff" math="0" shadow="0">
      <root>
        <mxCell id="0" />
        <mxCell id="1" parent="0" />
        <mxCell id="2" value="&lt;span style=&quot;font-weight: 400;&quot;&gt;Würfel&lt;/span&gt;" style="swimlane;fontStyle=1;align=center;verticalAlign=top;childLayout=stackLayout;horizontal=1;startSize=26;horizontalStack=0;resizeParent=1;resizeParentMax=0;resizeLast=0;collapsible=1;marginBottom=0;whiteSpace=wrap;html=1;" parent="1" vertex="1">
          <mxGeometry x="-225" y="-180" width="160" height="86" as="geometry" />
        </mxCell>
        <mxCell id="3" value="zahl" style="text;strokeColor=none;fillColor=none;align=left;verticalAlign=top;spacingLeft=4;spacingRight=4;overflow=hidden;rotatable=0;points=[[0,0.5],[1,0.5]];portConstraint=eastwest;whiteSpace=wrap;html=1;" parent="2" vertex="1">
          <mxGeometry y="26" width="160" height="26" as="geometry" />
        </mxCell>
        <mxCell id="4" value="" style="line;strokeWidth=1;fillColor=none;align=left;verticalAlign=middle;spacingTop=-1;spacingLeft=3;spacingRight=3;rotatable=0;labelPosition=right;points=[];portConstraint=eastwest;strokeColor=inherit;" parent="2" vertex="1">
          <mxGeometry y="52" width="160" height="8" as="geometry" />
        </mxCell>
        <mxCell id="5" value="WuerfelRollen()" style="text;strokeColor=none;fillColor=none;align=left;verticalAlign=top;spacingLeft=4;spacingRight=4;overflow=hidden;rotatable=0;points=[[0,0.5],[1,0.5]];portConstraint=eastwest;whiteSpace=wrap;html=1;" parent="2" vertex="1">
          <mxGeometry y="60" width="160" height="26" as="geometry" />
        </mxCell>
        <mxCell id="6" value="&lt;span style=&quot;font-weight: 400;&quot;&gt;Spielfeld (GUI)&lt;/span&gt;" style="swimlane;fontStyle=1;align=center;verticalAlign=top;childLayout=stackLayout;horizontal=1;startSize=24;horizontalStack=0;resizeParent=1;resizeParentMax=0;resizeLast=0;collapsible=1;marginBottom=0;whiteSpace=wrap;html=1;" parent="1" vertex="1">
          <mxGeometry x="241" y="-154" width="159" height="58" as="geometry" />
        </mxCell>
        <mxCell id="NtZ1cDwz7gmbYvYgGK6W-118" value="GewinerAusgeben" style="text;strokeColor=none;fillColor=none;align=left;verticalAlign=top;spacingLeft=4;spacingRight=4;overflow=hidden;rotatable=0;points=[[0,0.5],[1,0.5]];portConstraint=eastwest;whiteSpace=wrap;html=1;" vertex="1" parent="6">
          <mxGeometry y="24" width="159" height="26" as="geometry" />
        </mxCell>
        <mxCell id="7" value="" style="line;strokeWidth=1;fillColor=none;align=left;verticalAlign=middle;spacingTop=-1;spacingLeft=3;spacingRight=3;rotatable=0;labelPosition=right;points=[];portConstraint=eastwest;strokeColor=inherit;" parent="6" vertex="1">
          <mxGeometry y="50" width="159" height="8" as="geometry" />
        </mxCell>
        <mxCell id="8" value="&lt;span style=&quot;font-weight: 400;&quot;&gt;Figur&lt;/span&gt;" style="swimlane;fontStyle=1;align=center;verticalAlign=top;childLayout=stackLayout;horizontal=1;startSize=26;horizontalStack=0;resizeParent=1;resizeParentMax=0;resizeLast=0;collapsible=1;marginBottom=0;whiteSpace=wrap;html=1;" parent="1" vertex="1">
          <mxGeometry x="677" y="-176" width="160" height="112" as="geometry" />
        </mxCell>
        <mxCell id="9" value="name" style="text;strokeColor=none;fillColor=none;align=left;verticalAlign=top;spacingLeft=4;spacingRight=4;overflow=hidden;rotatable=0;points=[[0,0.5],[1,0.5]];portConstraint=eastwest;whiteSpace=wrap;html=1;" parent="8" vertex="1">
          <mxGeometry y="26" width="160" height="26" as="geometry" />
        </mxCell>
        <mxCell id="10" value="position" style="text;strokeColor=none;fillColor=none;align=left;verticalAlign=top;spacingLeft=4;spacingRight=4;overflow=hidden;rotatable=0;points=[[0,0.5],[1,0.5]];portConstraint=eastwest;whiteSpace=wrap;html=1;" parent="8" vertex="1">
          <mxGeometry y="52" width="160" height="26" as="geometry" />
        </mxCell>
        <mxCell id="11" value="" style="line;strokeWidth=1;fillColor=none;align=left;verticalAlign=middle;spacingTop=-1;spacingLeft=3;spacingRight=3;rotatable=0;labelPosition=right;points=[];portConstraint=eastwest;strokeColor=inherit;" parent="8" vertex="1">
          <mxGeometry y="78" width="160" height="8" as="geometry" />
        </mxCell>
        <mxCell id="12" value="nutzeItem()" style="text;strokeColor=none;fillColor=none;align=left;verticalAlign=top;spacingLeft=4;spacingRight=4;overflow=hidden;rotatable=0;points=[[0,0.5],[1,0.5]];portConstraint=eastwest;whiteSpace=wrap;html=1;" parent="8" vertex="1">
          <mxGeometry y="86" width="160" height="26" as="geometry" />
        </mxCell>
        <mxCell id="13" value="&lt;span style=&quot;font-weight: 400;&quot;&gt;Feld&lt;/span&gt;" style="swimlane;fontStyle=1;align=center;verticalAlign=top;childLayout=stackLayout;horizontal=1;startSize=26;horizontalStack=0;resizeParent=1;resizeParentMax=0;resizeLast=0;collapsible=1;marginBottom=0;whiteSpace=wrap;html=1;" parent="1" vertex="1">
          <mxGeometry x="241" y="14" width="160" height="164" as="geometry" />
        </mxCell>
        <mxCell id="14" value="effekt" style="text;strokeColor=none;fillColor=none;align=left;verticalAlign=top;spacingLeft=4;spacingRight=4;overflow=hidden;rotatable=0;points=[[0,0.5],[1,0.5]];portConstraint=eastwest;whiteSpace=wrap;html=1;" parent="13" vertex="1">
          <mxGeometry y="26" width="160" height="26" as="geometry" />
        </mxCell>
        <mxCell id="15" value="besetzt" style="text;strokeColor=none;fillColor=none;align=left;verticalAlign=top;spacingLeft=4;spacingRight=4;overflow=hidden;rotatable=0;points=[[0,0.5],[1,0.5]];portConstraint=eastwest;whiteSpace=wrap;html=1;" parent="13" vertex="1">
          <mxGeometry y="52" width="160" height="26" as="geometry" />
        </mxCell>
        <mxCell id="16" value="" style="line;strokeWidth=1;fillColor=none;align=left;verticalAlign=middle;spacingTop=-1;spacingLeft=3;spacingRight=3;rotatable=0;labelPosition=right;points=[];portConstraint=eastwest;strokeColor=inherit;" parent="13" vertex="1">
          <mxGeometry y="78" width="160" height="8" as="geometry" />
        </mxCell>
        <mxCell id="17" value="istBesetzt()" style="text;strokeColor=none;fillColor=none;align=left;verticalAlign=top;spacingLeft=4;spacingRight=4;overflow=hidden;rotatable=0;points=[[0,0.5],[1,0.5]];portConstraint=eastwest;whiteSpace=wrap;html=1;" parent="13" vertex="1">
          <mxGeometry y="86" width="160" height="26" as="geometry" />
        </mxCell>
        <mxCell id="18" value="feldBesetzen()" style="text;strokeColor=none;fillColor=none;align=left;verticalAlign=top;spacingLeft=4;spacingRight=4;overflow=hidden;rotatable=0;points=[[0,0.5],[1,0.5]];portConstraint=eastwest;whiteSpace=wrap;html=1;" parent="13" vertex="1">
          <mxGeometry y="112" width="160" height="26" as="geometry" />
        </mxCell>
        <mxCell id="19" value="feldVerlassen()" style="text;strokeColor=none;fillColor=none;align=left;verticalAlign=top;spacingLeft=4;spacingRight=4;overflow=hidden;rotatable=0;points=[[0,0.5],[1,0.5]];portConstraint=eastwest;whiteSpace=wrap;html=1;" parent="13" vertex="1">
          <mxGeometry y="138" width="160" height="26" as="geometry" />
        </mxCell>
        <mxCell id="20" value="&lt;span style=&quot;font-weight: 400;&quot;&gt;Shop&lt;/span&gt;" style="swimlane;fontStyle=1;align=center;verticalAlign=top;childLayout=stackLayout;horizontal=1;startSize=26;horizontalStack=0;resizeParent=1;resizeParentMax=0;resizeLast=0;collapsible=1;marginBottom=0;whiteSpace=wrap;html=1;" parent="1" vertex="1">
          <mxGeometry x="-68" y="44" width="160" height="86" as="geometry" />
        </mxCell>
        <mxCell id="21" value="items" style="text;strokeColor=none;fillColor=none;align=left;verticalAlign=top;spacingLeft=4;spacingRight=4;overflow=hidden;rotatable=0;points=[[0,0.5],[1,0.5]];portConstraint=eastwest;whiteSpace=wrap;html=1;" parent="20" vertex="1">
          <mxGeometry y="26" width="160" height="26" as="geometry" />
        </mxCell>
        <mxCell id="22" value="" style="line;strokeWidth=1;fillColor=none;align=left;verticalAlign=middle;spacingTop=-1;spacingLeft=3;spacingRight=3;rotatable=0;labelPosition=right;points=[];portConstraint=eastwest;strokeColor=inherit;" parent="20" vertex="1">
          <mxGeometry y="52" width="160" height="8" as="geometry" />
        </mxCell>
        <mxCell id="23" value="kaufMöglich?" style="text;strokeColor=none;fillColor=none;align=left;verticalAlign=top;spacingLeft=4;spacingRight=4;overflow=hidden;rotatable=0;points=[[0,0.5],[1,0.5]];portConstraint=eastwest;whiteSpace=wrap;html=1;" parent="20" vertex="1">
          <mxGeometry y="60" width="160" height="26" as="geometry" />
        </mxCell>
        <mxCell id="24" value="" style="endArrow=diamondThin;endFill=1;endSize=24;html=1;rounded=0;fontSize=12;curved=1;" parent="1" edge="1">
          <mxGeometry width="160" relative="1" as="geometry">
            <mxPoint x="806" y="585" as="sourcePoint" />
            <mxPoint x="966" y="585" as="targetPoint" />
          </mxGeometry>
        </mxCell>
        <mxCell id="25" value="" style="endArrow=open;endFill=1;endSize=12;html=1;rounded=0;fontSize=12;curved=1;" parent="1" edge="1">
          <mxGeometry width="160" relative="1" as="geometry">
            <mxPoint x="815" y="630" as="sourcePoint" />
            <mxPoint x="975" y="630" as="targetPoint" />
          </mxGeometry>
        </mxCell>
        <mxCell id="26" value="&lt;span style=&quot;font-weight: 400;&quot;&gt;Inventar&lt;/span&gt;" style="swimlane;fontStyle=1;align=center;verticalAlign=top;childLayout=stackLayout;horizontal=1;startSize=26;horizontalStack=0;resizeParent=1;resizeParentMax=0;resizeLast=0;collapsible=1;marginBottom=0;whiteSpace=wrap;html=1;" parent="1" vertex="1">
          <mxGeometry x="448" y="313" width="160" height="138" as="geometry" />
        </mxCell>
        <mxCell id="27" value="items" style="text;strokeColor=none;fillColor=none;align=left;verticalAlign=top;spacingLeft=4;spacingRight=4;overflow=hidden;rotatable=0;points=[[0,0.5],[1,0.5]];portConstraint=eastwest;whiteSpace=wrap;html=1;" parent="26" vertex="1">
          <mxGeometry y="26" width="160" height="26" as="geometry" />
        </mxCell>
        <mxCell id="28" value="anzahlItems" style="text;strokeColor=none;fillColor=none;align=left;verticalAlign=top;spacingLeft=4;spacingRight=4;overflow=hidden;rotatable=0;points=[[0,0.5],[1,0.5]];portConstraint=eastwest;whiteSpace=wrap;html=1;" parent="26" vertex="1">
          <mxGeometry y="52" width="160" height="26" as="geometry" />
        </mxCell>
        <mxCell id="29" value="" style="line;strokeWidth=1;fillColor=none;align=left;verticalAlign=middle;spacingTop=-1;spacingLeft=3;spacingRight=3;rotatable=0;labelPosition=right;points=[];portConstraint=eastwest;strokeColor=inherit;" parent="26" vertex="1">
          <mxGeometry y="78" width="160" height="8" as="geometry" />
        </mxCell>
        <mxCell id="30" value="itemAufnahme()&lt;span style=&quot;white-space: pre;&quot;&gt;&#x9;&lt;/span&gt;" style="text;strokeColor=none;fillColor=none;align=left;verticalAlign=top;spacingLeft=4;spacingRight=4;overflow=hidden;rotatable=0;points=[[0,0.5],[1,0.5]];portConstraint=eastwest;whiteSpace=wrap;html=1;" parent="26" vertex="1">
          <mxGeometry y="86" width="160" height="26" as="geometry" />
        </mxCell>
        <mxCell id="31" value="itemGenutzt()" style="text;strokeColor=none;fillColor=none;align=left;verticalAlign=top;spacingLeft=4;spacingRight=4;overflow=hidden;rotatable=0;points=[[0,0.5],[1,0.5]];portConstraint=eastwest;whiteSpace=wrap;html=1;" parent="26" vertex="1">
          <mxGeometry y="112" width="160" height="26" as="geometry" />
        </mxCell>
        <mxCell id="32" value="&lt;span style=&quot;font-weight: 400;&quot;&gt;Münzen&lt;/span&gt;" style="swimlane;fontStyle=1;align=center;verticalAlign=top;childLayout=stackLayout;horizontal=1;startSize=26;horizontalStack=0;resizeParent=1;resizeParentMax=0;resizeLast=0;collapsible=1;marginBottom=0;whiteSpace=wrap;html=1;" parent="1" vertex="1">
          <mxGeometry x="-71" y="320" width="160" height="68" as="geometry" />
        </mxCell>
        <mxCell id="33" value="wert(Bronze(1), Silber(2), Gold(3))?)" style="text;strokeColor=none;fillColor=none;align=left;verticalAlign=top;spacingLeft=4;spacingRight=4;overflow=hidden;rotatable=0;points=[[0,0.5],[1,0.5]];portConstraint=eastwest;whiteSpace=wrap;html=1;" parent="32" vertex="1">
          <mxGeometry y="26" width="160" height="34" as="geometry" />
        </mxCell>
        <mxCell id="34" value="" style="line;strokeWidth=1;fillColor=none;align=left;verticalAlign=middle;spacingTop=-1;spacingLeft=3;spacingRight=3;rotatable=0;labelPosition=right;points=[];portConstraint=eastwest;strokeColor=inherit;" parent="32" vertex="1">
          <mxGeometry y="60" width="160" height="8" as="geometry" />
        </mxCell>
        <mxCell id="35" value="&lt;span style=&quot;font-weight: 400;&quot;&gt;Spieler&lt;/span&gt;" style="swimlane;fontStyle=1;align=center;verticalAlign=top;childLayout=stackLayout;horizontal=1;startSize=26;horizontalStack=0;resizeParent=1;resizeParentMax=0;resizeLast=0;collapsible=1;marginBottom=0;whiteSpace=wrap;html=1;" parent="1" vertex="1">
          <mxGeometry x="991" y="-180" width="160" height="112" as="geometry" />
        </mxCell>
        <mxCell id="36" value="name" style="text;strokeColor=none;fillColor=none;align=left;verticalAlign=top;spacingLeft=4;spacingRight=4;overflow=hidden;rotatable=0;points=[[0,0.5],[1,0.5]];portConstraint=eastwest;whiteSpace=wrap;html=1;" parent="35" vertex="1">
          <mxGeometry y="26" width="160" height="26" as="geometry" />
        </mxCell>
        <mxCell id="37" value="ip" style="text;strokeColor=none;fillColor=none;align=left;verticalAlign=top;spacingLeft=4;spacingRight=4;overflow=hidden;rotatable=0;points=[[0,0.5],[1,0.5]];portConstraint=eastwest;whiteSpace=wrap;html=1;" parent="35" vertex="1">
          <mxGeometry y="52" width="160" height="26" as="geometry" />
        </mxCell>
        <mxCell id="38" value="" style="line;strokeWidth=1;fillColor=none;align=left;verticalAlign=middle;spacingTop=-1;spacingLeft=3;spacingRight=3;rotatable=0;labelPosition=right;points=[];portConstraint=eastwest;strokeColor=inherit;" parent="35" vertex="1">
          <mxGeometry y="78" width="160" height="8" as="geometry" />
        </mxCell>
        <mxCell id="39" value="sendeNachricht()" style="text;strokeColor=none;fillColor=none;align=left;verticalAlign=top;spacingLeft=4;spacingRight=4;overflow=hidden;rotatable=0;points=[[0,0.5],[1,0.5]];portConstraint=eastwest;whiteSpace=wrap;html=1;" parent="35" vertex="1">
          <mxGeometry y="86" width="160" height="26" as="geometry" />
        </mxCell>
        <mxCell id="40" value="" style="endArrow=diamondThin;endFill=0;endSize=24;html=1;rounded=0;fontSize=12;curved=1;entryX=0;entryY=0.5;entryDx=0;entryDy=0;" parent="1" target="9" edge="1">
          <mxGeometry width="160" relative="1" as="geometry">
            <mxPoint x="401" y="-135" as="sourcePoint" />
            <mxPoint x="561" y="-135" as="targetPoint" />
          </mxGeometry>
        </mxCell>
        <mxCell id="41" value="" style="endArrow=diamondThin;endFill=1;endSize=24;html=1;rounded=0;fontSize=12;curved=1;entryX=0.5;entryY=0;entryDx=0;entryDy=0;exitX=0.5;exitY=1;exitDx=0;exitDy=0;" parent="1" source="6" target="13" edge="1">
          <mxGeometry width="160" relative="1" as="geometry">
            <mxPoint x="322" y="-94" as="sourcePoint" />
            <mxPoint x="482" y="-94" as="targetPoint" />
          </mxGeometry>
        </mxCell>
        <mxCell id="42" value="" style="endArrow=diamondThin;endFill=1;endSize=24;html=1;rounded=0;fontSize=12;curved=1;exitX=0;exitY=0.5;exitDx=0;exitDy=0;entryX=1;entryY=0.5;entryDx=0;entryDy=0;" parent="1" source="37" target="10" edge="1">
          <mxGeometry width="160" relative="1" as="geometry">
            <mxPoint x="743" y="-94" as="sourcePoint" />
            <mxPoint x="916" y="22" as="targetPoint" />
          </mxGeometry>
        </mxCell>
        <mxCell id="43" value="&lt;span style=&quot;font-weight: 400;&quot;&gt;Chatroom&lt;/span&gt;" style="swimlane;fontStyle=1;align=center;verticalAlign=top;childLayout=stackLayout;horizontal=1;startSize=26;horizontalStack=0;resizeParent=1;resizeParentMax=0;resizeLast=0;collapsible=1;marginBottom=0;whiteSpace=wrap;html=1;" parent="1" vertex="1">
          <mxGeometry x="1002" y="103" width="160" height="138" as="geometry" />
        </mxCell>
        <mxCell id="44" value="nachrichten" style="text;strokeColor=none;fillColor=none;align=left;verticalAlign=top;spacingLeft=4;spacingRight=4;overflow=hidden;rotatable=0;points=[[0,0.5],[1,0.5]];portConstraint=eastwest;whiteSpace=wrap;html=1;" parent="43" vertex="1">
          <mxGeometry y="26" width="160" height="26" as="geometry" />
        </mxCell>
        <mxCell id="45" value="" style="line;strokeWidth=1;fillColor=none;align=left;verticalAlign=middle;spacingTop=-1;spacingLeft=3;spacingRight=3;rotatable=0;labelPosition=right;points=[];portConstraint=eastwest;strokeColor=inherit;" parent="43" vertex="1">
          <mxGeometry y="52" width="160" height="8" as="geometry" />
        </mxCell>
        <mxCell id="46" value="anmelden()" style="text;strokeColor=none;fillColor=none;align=left;verticalAlign=top;spacingLeft=4;spacingRight=4;overflow=hidden;rotatable=0;points=[[0,0.5],[1,0.5]];portConstraint=eastwest;whiteSpace=wrap;html=1;" parent="43" vertex="1">
          <mxGeometry y="60" width="160" height="26" as="geometry" />
        </mxCell>
        <mxCell id="47" value="abmelden()" style="text;strokeColor=none;fillColor=none;align=left;verticalAlign=top;spacingLeft=4;spacingRight=4;overflow=hidden;rotatable=0;points=[[0,0.5],[1,0.5]];portConstraint=eastwest;whiteSpace=wrap;html=1;" parent="43" vertex="1">
          <mxGeometry y="86" width="160" height="26" as="geometry" />
        </mxCell>
        <mxCell id="48" value="benachrichtigen()" style="text;strokeColor=none;fillColor=none;align=left;verticalAlign=top;spacingLeft=4;spacingRight=4;overflow=hidden;rotatable=0;points=[[0,0.5],[1,0.5]];portConstraint=eastwest;whiteSpace=wrap;html=1;" parent="43" vertex="1">
          <mxGeometry y="112" width="160" height="26" as="geometry" />
        </mxCell>
        <mxCell id="49" value="" style="endArrow=diamondThin;endFill=0;endSize=24;html=1;rounded=0;fontSize=12;curved=1;entryX=1;entryY=0.5;entryDx=0;entryDy=0;" parent="1" target="33" edge="1">
          <mxGeometry width="160" relative="1" as="geometry">
            <mxPoint x="448" y="364" as="sourcePoint" />
            <mxPoint x="294" y="362" as="targetPoint" />
          </mxGeometry>
        </mxCell>
        <mxCell id="50" value="" style="endArrow=diamondThin;endFill=0;endSize=24;html=1;rounded=0;fontSize=12;curved=1;entryX=0.972;entryY=0.084;entryDx=0;entryDy=0;exitX=0.006;exitY=1.059;exitDx=0;exitDy=0;exitPerimeter=0;entryPerimeter=0;" parent="1" source="31" target="53" edge="1">
          <mxGeometry width="160" relative="1" as="geometry">
            <mxPoint x="-7.999999999999915" y="610.998" as="sourcePoint" />
            <mxPoint x="667.0400000000001" y="437.24199999999996" as="targetPoint" />
          </mxGeometry>
        </mxCell>
        <mxCell id="51" value="&lt;span style=&quot;font-weight: 400;&quot;&gt;Item&lt;/span&gt;" style="swimlane;fontStyle=1;align=center;verticalAlign=top;childLayout=stackLayout;horizontal=1;startSize=26;horizontalStack=0;resizeParent=1;resizeParentMax=0;resizeLast=0;collapsible=1;marginBottom=0;whiteSpace=wrap;html=1;" parent="1" vertex="1">
          <mxGeometry x="-320" y="525" width="160" height="138" as="geometry" />
        </mxCell>
        <mxCell id="52" value="" style="endArrow=diamondThin;endFill=0;endSize=24;html=1;rounded=0;fontSize=12;curved=1;entryX=-0.006;entryY=0;entryDx=0;entryDy=0;entryPerimeter=0;" parent="51" target="23" edge="1">
          <mxGeometry width="160" relative="1" as="geometry">
            <mxPoint x="73" as="sourcePoint" />
            <mxPoint x="233" as="targetPoint" />
          </mxGeometry>
        </mxCell>
        <mxCell id="53" value="name" style="text;strokeColor=none;fillColor=none;align=left;verticalAlign=top;spacingLeft=4;spacingRight=4;overflow=hidden;rotatable=0;points=[[0,0.5],[1,0.5]];portConstraint=eastwest;whiteSpace=wrap;html=1;" parent="51" vertex="1">
          <mxGeometry y="26" width="160" height="26" as="geometry" />
        </mxCell>
        <mxCell id="54" value="kosten" style="text;strokeColor=none;fillColor=none;align=left;verticalAlign=top;spacingLeft=4;spacingRight=4;overflow=hidden;rotatable=0;points=[[0,0.5],[1,0.5]];portConstraint=eastwest;whiteSpace=wrap;html=1;" parent="51" vertex="1">
          <mxGeometry y="52" width="160" height="26" as="geometry" />
        </mxCell>
        <mxCell id="55" value="effekt" style="text;strokeColor=none;fillColor=none;align=left;verticalAlign=top;spacingLeft=4;spacingRight=4;overflow=hidden;rotatable=0;points=[[0,0.5],[1,0.5]];portConstraint=eastwest;whiteSpace=wrap;html=1;" parent="51" vertex="1">
          <mxGeometry y="78" width="160" height="26" as="geometry" />
        </mxCell>
        <mxCell id="56" value="effektbeschreibung" style="text;strokeColor=none;fillColor=none;align=left;verticalAlign=top;spacingLeft=4;spacingRight=4;overflow=hidden;rotatable=0;points=[[0,0.5],[1,0.5]];portConstraint=eastwest;whiteSpace=wrap;html=1;" parent="51" vertex="1">
          <mxGeometry y="104" width="160" height="26" as="geometry" />
        </mxCell>
        <mxCell id="57" value="" style="line;strokeWidth=1;fillColor=none;align=left;verticalAlign=middle;spacingTop=-1;spacingLeft=3;spacingRight=3;rotatable=0;labelPosition=right;points=[];portConstraint=eastwest;strokeColor=inherit;" parent="51" vertex="1">
          <mxGeometry y="130" width="160" height="8" as="geometry" />
        </mxCell>
        <mxCell id="58" value="" style="endArrow=diamondThin;endFill=0;endSize=24;html=1;rounded=0;fontSize=12;curved=1;" parent="1" edge="1">
          <mxGeometry width="160" relative="1" as="geometry">
            <mxPoint x="815" y="550" as="sourcePoint" />
            <mxPoint x="975" y="550" as="targetPoint" />
          </mxGeometry>
        </mxCell>
        <mxCell id="59" value="" style="endArrow=diamondThin;endFill=0;endSize=24;html=1;rounded=0;fontSize=12;curved=1;entryX=0.531;entryY=1.109;entryDx=0;entryDy=0;entryPerimeter=0;exitX=0.5;exitY=0;exitDx=0;exitDy=0;" parent="1" source="43" target="39" edge="1">
          <mxGeometry width="160" relative="1" as="geometry">
            <mxPoint x="978" y="349" as="sourcePoint" />
            <mxPoint x="1036" y="520" as="targetPoint" />
          </mxGeometry>
        </mxCell>
        <mxCell id="60" value="" style="endArrow=none;html=1;rounded=0;entryX=0.444;entryY=1.095;entryDx=0;entryDy=0;entryPerimeter=0;" parent="1" target="23" edge="1">
          <mxGeometry width="50" height="50" relative="1" as="geometry">
            <mxPoint x="3" y="320" as="sourcePoint" />
            <mxPoint x="53" y="270" as="targetPoint" />
          </mxGeometry>
        </mxCell>
        <mxCell id="61" value="1" style="text;strokeColor=none;align=center;fillColor=none;html=1;verticalAlign=middle;whiteSpace=wrap;rounded=0;" parent="1" vertex="1">
          <mxGeometry x="-53" y="-176" width="18" height="30" as="geometry" />
        </mxCell>
        <mxCell id="62" value="1" style="text;strokeColor=none;align=center;fillColor=none;html=1;verticalAlign=middle;whiteSpace=wrap;rounded=0;" parent="1" vertex="1">
          <mxGeometry x="217" y="-154" width="18" height="30" as="geometry" />
        </mxCell>
        <mxCell id="63" value="1" style="text;strokeColor=none;align=center;fillColor=none;html=1;verticalAlign=middle;whiteSpace=wrap;rounded=0;" parent="1" vertex="1">
          <mxGeometry x="404" y="-165" width="18" height="30" as="geometry" />
        </mxCell>
        <mxCell id="64" value="1..." style="text;strokeColor=none;align=center;fillColor=none;html=1;verticalAlign=middle;whiteSpace=wrap;rounded=0;" parent="1" vertex="1">
          <mxGeometry x="659" y="-171" width="18" height="30" as="geometry" />
        </mxCell>
        <mxCell id="65" value="1" style="text;strokeColor=none;align=center;fillColor=none;html=1;verticalAlign=middle;whiteSpace=wrap;rounded=0;" parent="1" vertex="1">
          <mxGeometry x="-8" y="14" width="18" height="30" as="geometry" />
        </mxCell>
        <mxCell id="66" value="1.." style="text;strokeColor=none;align=center;fillColor=none;html=1;verticalAlign=middle;whiteSpace=wrap;rounded=0;" parent="1" vertex="1">
          <mxGeometry x="329" y="-18" width="18" height="30" as="geometry" />
        </mxCell>
        <mxCell id="67" value="1" style="text;strokeColor=none;align=center;fillColor=none;html=1;verticalAlign=middle;whiteSpace=wrap;rounded=0;" parent="1" vertex="1">
          <mxGeometry x="268" y="-94" width="18" height="30" as="geometry" />
        </mxCell>
        <mxCell id="68" value="1" style="text;strokeColor=none;align=center;fillColor=none;html=1;verticalAlign=middle;whiteSpace=wrap;rounded=0;" parent="1" vertex="1">
          <mxGeometry x="322" y="-96" width="18" height="30" as="geometry" />
        </mxCell>
        <mxCell id="69" value="1..." style="text;strokeColor=none;align=center;fillColor=none;html=1;verticalAlign=middle;whiteSpace=wrap;rounded=0;" parent="1" vertex="1">
          <mxGeometry x="10" y="286" width="18" height="30" as="geometry" />
        </mxCell>
        <mxCell id="70" value="1" style="text;strokeColor=none;align=center;fillColor=none;html=1;verticalAlign=middle;whiteSpace=wrap;rounded=0;" parent="1" vertex="1">
          <mxGeometry x="8" y="135" width="18" height="30" as="geometry" />
        </mxCell>
        <mxCell id="71" value="1" style="text;strokeColor=none;align=center;fillColor=none;html=1;verticalAlign=middle;whiteSpace=wrap;rounded=0;" parent="1" vertex="1">
          <mxGeometry x="-71" y="135" width="18" height="30" as="geometry" />
        </mxCell>
        <mxCell id="72" value="1..." style="text;strokeColor=none;align=center;fillColor=none;html=1;verticalAlign=middle;whiteSpace=wrap;rounded=0;" parent="1" vertex="1">
          <mxGeometry x="-272" y="495" width="18" height="30" as="geometry" />
        </mxCell>
        <mxCell id="73" value="1..." style="text;strokeColor=none;align=center;fillColor=none;html=1;verticalAlign=middle;whiteSpace=wrap;rounded=0;" parent="1" vertex="1">
          <mxGeometry x="92" y="316" width="18" height="30" as="geometry" />
        </mxCell>
        <mxCell id="74" value="1" style="text;strokeColor=none;align=center;fillColor=none;html=1;verticalAlign=middle;whiteSpace=wrap;rounded=0;" parent="1" vertex="1">
          <mxGeometry x="430" y="320" width="18" height="30" as="geometry" />
        </mxCell>
        <mxCell id="75" value="1..." style="text;strokeColor=none;align=center;fillColor=none;html=1;verticalAlign=middle;whiteSpace=wrap;rounded=0;" parent="1" vertex="1">
          <mxGeometry x="-149" y="562" width="18" height="30" as="geometry" />
        </mxCell>
        <mxCell id="76" value="1" style="text;strokeColor=none;align=center;fillColor=none;html=1;verticalAlign=middle;whiteSpace=wrap;rounded=0;" parent="1" vertex="1">
          <mxGeometry x="422" y="428" width="18" height="30" as="geometry" />
        </mxCell>
        <mxCell id="77" value="1" style="text;strokeColor=none;align=center;fillColor=none;html=1;verticalAlign=middle;whiteSpace=wrap;rounded=0;" parent="1" vertex="1">
          <mxGeometry x="501" y="280" width="18" height="30" as="geometry" />
        </mxCell>
        <mxCell id="78" value="1" style="text;strokeColor=none;align=center;fillColor=none;html=1;verticalAlign=middle;whiteSpace=wrap;rounded=0;" parent="1" vertex="1">
          <mxGeometry x="653" y="-80" width="18" height="30" as="geometry" />
        </mxCell>
        <mxCell id="79" value="1" style="text;strokeColor=none;align=center;fillColor=none;html=1;verticalAlign=middle;whiteSpace=wrap;rounded=0;" parent="1" vertex="1">
          <mxGeometry x="1057" y="72" width="18" height="30" as="geometry" />
        </mxCell>
        <mxCell id="80" value="1..." style="text;strokeColor=none;align=center;fillColor=none;html=1;verticalAlign=middle;whiteSpace=wrap;rounded=0;" parent="1" vertex="1">
          <mxGeometry x="1049" y="-61" width="18" height="30" as="geometry" />
        </mxCell>
        <mxCell id="81" value="" style="endArrow=diamondThin;endFill=0;endSize=24;html=1;rounded=0;fontSize=12;curved=1;entryX=0.5;entryY=0;entryDx=0;entryDy=0;exitX=0.25;exitY=1;exitDx=0;exitDy=0;" parent="1" source="6" target="20" edge="1">
          <mxGeometry width="160" relative="1" as="geometry">
            <mxPoint x="241.96000000000004" y="-115.89200000000005" as="sourcePoint" />
            <mxPoint x="441" y="-95" as="targetPoint" />
          </mxGeometry>
        </mxCell>
        <mxCell id="82" value="" style="endArrow=none;html=1;rounded=0;entryX=0;entryY=0.5;entryDx=0;entryDy=0;" parent="1" source="3" target="NtZ1cDwz7gmbYvYgGK6W-118" edge="1">
          <mxGeometry width="50" height="50" relative="1" as="geometry">
            <mxPoint x="8.41" y="4" as="sourcePoint" />
            <mxPoint x="237.15999999999985" y="-131.06799999999998" as="targetPoint" />
          </mxGeometry>
        </mxCell>
        <mxCell id="83" value="" style="endArrow=diamondThin;endFill=0;endSize=24;html=1;rounded=0;fontSize=12;curved=1;entryX=0.5;entryY=0;entryDx=0;entryDy=0;exitX=0.008;exitY=1.181;exitDx=0;exitDy=0;exitPerimeter=0;" parent="1" source="12" target="26" edge="1">
          <mxGeometry width="160" relative="1" as="geometry">
            <mxPoint x="767" y="358.40999999999997" as="sourcePoint" />
            <mxPoint x="927" y="358.40999999999997" as="targetPoint" />
          </mxGeometry>
        </mxCell>
        <mxCell id="84" value="1" style="text;strokeColor=none;align=center;fillColor=none;html=1;verticalAlign=middle;whiteSpace=wrap;rounded=0;" parent="1" vertex="1">
          <mxGeometry x="971" y="-150" width="18" height="30" as="geometry" />
        </mxCell>
        <mxCell id="85" value="1" style="text;strokeColor=none;align=center;fillColor=none;html=1;verticalAlign=middle;whiteSpace=wrap;rounded=0;" parent="1" vertex="1">
          <mxGeometry x="841" y="-154" width="18" height="30" as="geometry" />
        </mxCell>
        <mxCell id="NtZ1cDwz7gmbYvYgGK6W-87" value="&lt;span style=&quot;font-weight: 400;&quot;&gt;Shop (GUI)&lt;/span&gt;" style="swimlane;fontStyle=1;align=center;verticalAlign=top;childLayout=stackLayout;horizontal=1;startSize=26;horizontalStack=0;resizeParent=1;resizeParentMax=0;resizeLast=0;collapsible=1;marginBottom=0;whiteSpace=wrap;html=1;" vertex="1" parent="1">
          <mxGeometry x="-380" y="79" width="189" height="34" as="geometry" />
        </mxCell>
        <mxCell id="NtZ1cDwz7gmbYvYgGK6W-88" value="" style="line;strokeWidth=1;fillColor=none;align=left;verticalAlign=middle;spacingTop=-1;spacingLeft=3;spacingRight=3;rotatable=0;labelPosition=right;points=[];portConstraint=eastwest;strokeColor=inherit;" vertex="1" parent="NtZ1cDwz7gmbYvYgGK6W-87">
          <mxGeometry y="26" width="189" height="8" as="geometry" />
        </mxCell>
        <mxCell id="NtZ1cDwz7gmbYvYgGK6W-89" value="" style="endArrow=none;html=1;rounded=0;entryX=0.015;entryY=0.801;entryDx=0;entryDy=0;exitX=1;exitY=0.5;exitDx=0;exitDy=0;entryPerimeter=0;" edge="1" parent="1" source="NtZ1cDwz7gmbYvYgGK6W-87" target="21">
          <mxGeometry width="50" height="50" relative="1" as="geometry">
            <mxPoint x="-55" y="-127" as="sourcePoint" />
            <mxPoint x="251" y="-110" as="targetPoint" />
          </mxGeometry>
        </mxCell>
        <mxCell id="NtZ1cDwz7gmbYvYgGK6W-90" value="1" style="text;strokeColor=none;align=center;fillColor=none;html=1;verticalAlign=middle;whiteSpace=wrap;rounded=0;" vertex="1" parent="1">
          <mxGeometry x="-190" y="60" width="18" height="30" as="geometry" />
        </mxCell>
        <mxCell id="NtZ1cDwz7gmbYvYgGK6W-91" value="1" style="text;strokeColor=none;align=center;fillColor=none;html=1;verticalAlign=middle;whiteSpace=wrap;rounded=0;" vertex="1" parent="1">
          <mxGeometry x="-89" y="60" width="18" height="30" as="geometry" />
        </mxCell>
        <mxCell id="NtZ1cDwz7gmbYvYgGK6W-93" value="&lt;span style=&quot;font-weight: 400;&quot;&gt;Startscreen (GUI)&lt;/span&gt;" style="swimlane;fontStyle=1;align=center;verticalAlign=top;childLayout=stackLayout;horizontal=1;startSize=26;horizontalStack=0;resizeParent=1;resizeParentMax=0;resizeLast=0;collapsible=1;marginBottom=0;whiteSpace=wrap;html=1;" vertex="1" parent="1">
          <mxGeometry x="380" y="-330" width="189" height="34" as="geometry" />
        </mxCell>
        <mxCell id="NtZ1cDwz7gmbYvYgGK6W-94" value="" style="line;strokeWidth=1;fillColor=none;align=left;verticalAlign=middle;spacingTop=-1;spacingLeft=3;spacingRight=3;rotatable=0;labelPosition=right;points=[];portConstraint=eastwest;strokeColor=inherit;" vertex="1" parent="NtZ1cDwz7gmbYvYgGK6W-93">
          <mxGeometry y="26" width="189" height="8" as="geometry" />
        </mxCell>
        <mxCell id="NtZ1cDwz7gmbYvYgGK6W-95" value="" style="endArrow=none;html=1;rounded=0;entryX=0.109;entryY=-0.029;entryDx=0;entryDy=0;entryPerimeter=0;exitX=0.786;exitY=0.824;exitDx=0;exitDy=0;exitPerimeter=0;" edge="1" parent="1" source="NtZ1cDwz7gmbYvYgGK6W-94" target="35">
          <mxGeometry width="50" height="50" relative="1" as="geometry">
            <mxPoint x="540" y="-290" as="sourcePoint" />
            <mxPoint x="251" y="-110" as="targetPoint" />
          </mxGeometry>
        </mxCell>
        <mxCell id="NtZ1cDwz7gmbYvYgGK6W-96" value="" style="endArrow=none;html=1;rounded=0;exitX=0.75;exitY=0;exitDx=0;exitDy=0;" edge="1" parent="1" source="6">
          <mxGeometry width="50" height="50" relative="1" as="geometry">
            <mxPoint x="437" y="-286" as="sourcePoint" />
            <mxPoint x="400" y="-290" as="targetPoint" />
          </mxGeometry>
        </mxCell>
        <mxCell id="NtZ1cDwz7gmbYvYgGK6W-97" value="1" style="text;strokeColor=none;align=center;fillColor=none;html=1;verticalAlign=middle;whiteSpace=wrap;rounded=0;" vertex="1" parent="1">
          <mxGeometry x="1010" y="-210" width="18" height="30" as="geometry" />
        </mxCell>
        <mxCell id="NtZ1cDwz7gmbYvYgGK6W-98" value="1" style="text;strokeColor=none;align=center;fillColor=none;html=1;verticalAlign=middle;whiteSpace=wrap;rounded=0;" vertex="1" parent="1">
          <mxGeometry x="570" y="-310" width="18" height="30" as="geometry" />
        </mxCell>
        <mxCell id="NtZ1cDwz7gmbYvYgGK6W-99" value="1" style="text;strokeColor=none;align=center;fillColor=none;html=1;verticalAlign=middle;whiteSpace=wrap;rounded=0;" vertex="1" parent="1">
          <mxGeometry x="407" y="-296" width="18" height="30" as="geometry" />
        </mxCell>
        <mxCell id="NtZ1cDwz7gmbYvYgGK6W-100" value="1" style="text;strokeColor=none;align=center;fillColor=none;html=1;verticalAlign=middle;whiteSpace=wrap;rounded=0;" vertex="1" parent="1">
          <mxGeometry x="340" y="-184" width="18" height="30" as="geometry" />
        </mxCell>
        <mxCell id="NtZ1cDwz7gmbYvYgGK6W-101" value="&lt;span style=&quot;font-weight: 400;&quot;&gt;Inventar (GUI)&lt;/span&gt;" style="swimlane;fontStyle=1;align=center;verticalAlign=top;childLayout=stackLayout;horizontal=1;startSize=26;horizontalStack=0;resizeParent=1;resizeParentMax=0;resizeLast=0;collapsible=1;marginBottom=0;whiteSpace=wrap;html=1;" vertex="1" parent="1">
          <mxGeometry x="720" y="310" width="160" height="34" as="geometry" />
        </mxCell>
        <mxCell id="NtZ1cDwz7gmbYvYgGK6W-102" value="" style="line;strokeWidth=1;fillColor=none;align=left;verticalAlign=middle;spacingTop=-1;spacingLeft=3;spacingRight=3;rotatable=0;labelPosition=right;points=[];portConstraint=eastwest;strokeColor=inherit;" vertex="1" parent="NtZ1cDwz7gmbYvYgGK6W-101">
          <mxGeometry y="26" width="160" height="8" as="geometry" />
        </mxCell>
        <mxCell id="NtZ1cDwz7gmbYvYgGK6W-103" value="" style="endArrow=none;html=1;rounded=0;entryX=0;entryY=0.75;entryDx=0;entryDy=0;exitX=1;exitY=0.5;exitDx=0;exitDy=0;" edge="1" parent="1" source="27" target="NtZ1cDwz7gmbYvYgGK6W-101">
          <mxGeometry width="50" height="50" relative="1" as="geometry">
            <mxPoint x="539" y="-287" as="sourcePoint" />
            <mxPoint x="1018" y="-173" as="targetPoint" />
          </mxGeometry>
        </mxCell>
        <mxCell id="NtZ1cDwz7gmbYvYgGK6W-104" value="1" style="text;strokeColor=none;align=center;fillColor=none;html=1;verticalAlign=middle;whiteSpace=wrap;rounded=0;" vertex="1" parent="1">
          <mxGeometry x="620" y="316" width="18" height="30" as="geometry" />
        </mxCell>
        <mxCell id="NtZ1cDwz7gmbYvYgGK6W-105" value="1" style="text;strokeColor=none;align=center;fillColor=none;html=1;verticalAlign=middle;whiteSpace=wrap;rounded=0;" vertex="1" parent="1">
          <mxGeometry x="700" y="310" width="18" height="30" as="geometry" />
        </mxCell>
        <mxCell id="NtZ1cDwz7gmbYvYgGK6W-108" value="&lt;span style=&quot;font-weight: 400;&quot;&gt;Regelwerk (GUI)&lt;/span&gt;" style="swimlane;fontStyle=1;align=center;verticalAlign=top;childLayout=stackLayout;horizontal=1;startSize=26;horizontalStack=0;resizeParent=1;resizeParentMax=0;resizeLast=0;collapsible=1;marginBottom=0;whiteSpace=wrap;html=1;" vertex="1" parent="1">
          <mxGeometry x="140" y="-420" width="189" height="34" as="geometry" />
        </mxCell>
        <mxCell id="NtZ1cDwz7gmbYvYgGK6W-109" value="" style="line;strokeWidth=1;fillColor=none;align=left;verticalAlign=middle;spacingTop=-1;spacingLeft=3;spacingRight=3;rotatable=0;labelPosition=right;points=[];portConstraint=eastwest;strokeColor=inherit;" vertex="1" parent="NtZ1cDwz7gmbYvYgGK6W-108">
          <mxGeometry y="26" width="189" height="8" as="geometry" />
        </mxCell>
        <mxCell id="NtZ1cDwz7gmbYvYgGK6W-110" value="" style="endArrow=none;html=1;rounded=0;exitX=0.25;exitY=0;exitDx=0;exitDy=0;entryX=0.804;entryY=1.044;entryDx=0;entryDy=0;entryPerimeter=0;" edge="1" parent="1" source="NtZ1cDwz7gmbYvYgGK6W-93" target="NtZ1cDwz7gmbYvYgGK6W-109">
          <mxGeometry width="50" height="50" relative="1" as="geometry">
            <mxPoint x="371" y="-144" as="sourcePoint" />
            <mxPoint x="410" y="-280" as="targetPoint" />
          </mxGeometry>
        </mxCell>
        <mxCell id="NtZ1cDwz7gmbYvYgGK6W-111" value="" style="endArrow=none;html=1;rounded=0;exitX=0.208;exitY=-0.031;exitDx=0;exitDy=0;entryX=0.5;entryY=1;entryDx=0;entryDy=0;exitPerimeter=0;" edge="1" parent="1" source="6" target="NtZ1cDwz7gmbYvYgGK6W-108">
          <mxGeometry width="50" height="50" relative="1" as="geometry">
            <mxPoint x="437" y="-320" as="sourcePoint" />
            <mxPoint x="302" y="-376" as="targetPoint" />
          </mxGeometry>
        </mxCell>
        <mxCell id="NtZ1cDwz7gmbYvYgGK6W-112" value="1" style="text;strokeColor=none;align=center;fillColor=none;html=1;verticalAlign=middle;whiteSpace=wrap;rounded=0;" vertex="1" parent="1">
          <mxGeometry x="250" y="-190" width="18" height="30" as="geometry" />
        </mxCell>
        <mxCell id="NtZ1cDwz7gmbYvYgGK6W-113" value="1" style="text;strokeColor=none;align=center;fillColor=none;html=1;verticalAlign=middle;whiteSpace=wrap;rounded=0;" vertex="1" parent="1">
          <mxGeometry x="210" y="-386" width="18" height="30" as="geometry" />
        </mxCell>
        <mxCell id="NtZ1cDwz7gmbYvYgGK6W-114" value="1" style="text;strokeColor=none;align=center;fillColor=none;html=1;verticalAlign=middle;whiteSpace=wrap;rounded=0;" vertex="1" parent="1">
          <mxGeometry x="340" y="-410" width="18" height="30" as="geometry" />
        </mxCell>
        <mxCell id="NtZ1cDwz7gmbYvYgGK6W-115" value="1" style="text;strokeColor=none;align=center;fillColor=none;html=1;verticalAlign=middle;whiteSpace=wrap;rounded=0;" vertex="1" parent="1">
          <mxGeometry x="422" y="-360" width="18" height="30" as="geometry" />
        </mxCell>
        <mxCell id="NtZ1cDwz7gmbYvYgGK6W-120" value="&lt;span style=&quot;font-weight: 400;&quot;&gt;Chatroom (GUI)&lt;/span&gt;&lt;div&gt;&lt;span style=&quot;font-weight: 400;&quot;&gt;&lt;br&gt;&lt;/span&gt;&lt;/div&gt;" style="swimlane;fontStyle=1;align=center;verticalAlign=top;childLayout=stackLayout;horizontal=1;startSize=26;horizontalStack=0;resizeParent=1;resizeParentMax=0;resizeLast=0;collapsible=1;marginBottom=0;whiteSpace=wrap;html=1;" vertex="1" parent="1">
          <mxGeometry x="740" y="135" width="160" height="34" as="geometry" />
        </mxCell>
        <mxCell id="NtZ1cDwz7gmbYvYgGK6W-121" value="" style="line;strokeWidth=1;fillColor=none;align=left;verticalAlign=middle;spacingTop=-1;spacingLeft=3;spacingRight=3;rotatable=0;labelPosition=right;points=[];portConstraint=eastwest;strokeColor=inherit;" vertex="1" parent="NtZ1cDwz7gmbYvYgGK6W-120">
          <mxGeometry y="26" width="160" height="8" as="geometry" />
        </mxCell>
        <mxCell id="NtZ1cDwz7gmbYvYgGK6W-122" value="" style="endArrow=none;html=1;rounded=0;entryX=0;entryY=0.5;entryDx=0;entryDy=0;exitX=1;exitY=0.5;exitDx=0;exitDy=0;" edge="1" parent="1" source="NtZ1cDwz7gmbYvYgGK6W-120" target="44">
          <mxGeometry width="50" height="50" relative="1" as="geometry">
            <mxPoint x="539" y="-287" as="sourcePoint" />
            <mxPoint x="1018" y="-173" as="targetPoint" />
          </mxGeometry>
        </mxCell>
        <mxCell id="NtZ1cDwz7gmbYvYgGK6W-123" value="" style="endArrow=none;html=1;rounded=0;entryX=0;entryY=0.25;entryDx=0;entryDy=0;exitX=1;exitY=1;exitDx=0;exitDy=0;" edge="1" parent="1" source="6" target="NtZ1cDwz7gmbYvYgGK6W-120">
          <mxGeometry width="50" height="50" relative="1" as="geometry">
            <mxPoint x="910" y="162" as="sourcePoint" />
            <mxPoint x="1012" y="152" as="targetPoint" />
          </mxGeometry>
        </mxCell>
        <mxCell id="NtZ1cDwz7gmbYvYgGK6W-124" value="1" style="text;strokeColor=none;align=center;fillColor=none;html=1;verticalAlign=middle;whiteSpace=wrap;rounded=0;" vertex="1" parent="1">
          <mxGeometry x="404" y="-124" width="18" height="30" as="geometry" />
        </mxCell>
        <mxCell id="NtZ1cDwz7gmbYvYgGK6W-125" value="1" style="text;strokeColor=none;align=center;fillColor=none;html=1;verticalAlign=middle;whiteSpace=wrap;rounded=0;" vertex="1" parent="1">
          <mxGeometry x="722" y="100" width="18" height="30" as="geometry" />
        </mxCell>
        <mxCell id="NtZ1cDwz7gmbYvYgGK6W-126" value="1" style="text;strokeColor=none;align=center;fillColor=none;html=1;verticalAlign=middle;whiteSpace=wrap;rounded=0;" vertex="1" parent="1">
          <mxGeometry x="900" y="120" width="18" height="30" as="geometry" />
        </mxCell>
        <mxCell id="NtZ1cDwz7gmbYvYgGK6W-127" value="1" style="text;strokeColor=none;align=center;fillColor=none;html=1;verticalAlign=middle;whiteSpace=wrap;rounded=0;" vertex="1" parent="1">
          <mxGeometry x="984" y="113" width="18" height="30" as="geometry" />
        </mxCell>
      </root>
    </mxGraphModel>
  </diagram>
</mxfile>
